<svg xmlns="http://www.w3.org/2000/svg" viewBox="0 0 32 32"><rect width="32" height="32" rx="3" fill="#F7DF1E"/><path fill="#1F2A37" d="M13.2 24.6c-1.9 0-3-1-3.6-2.3l2-1.2c.4.8.8 1.4 1.7 1.4.8 0 1.3-.3 1.3-1.6v-8.5h2.5v8.6c0 2.6-1.5 3.6-3.9 3.6zm8.4 0c-2.3 0-3.8-1.1-4.5-2.5l2-1.2c.5.9 1.2 1.5 2.4 1.5 1 0 1.7-.5 1.7-1.2 0-.9-.7-1.2-1.9-1.7l-.6-.3c-1.9-.8-3.2-1.8-3.2-3.9 0-2 1.5-3.4 3.8-3.4 1.7 0 2.9.6 3.7 2.1l-2 1.3c-.4-.8-.9-1.1-1.7-1.1s-1.3.5-1.3 1.1c0 .8.5 1.1 1.6 1.6l.6.3c2.2 1 3.5 1.9 3.5 4 0 2.4-1.9 3.4-4.1 3.4z"/></svg>
