<svg xmlns="http://www.w3.org/2000/svg" viewBox="0 0 1600 520" width="1600" height="520" preserveAspectRatio="xMidYMid slice" role="presentation"><defs><linearGradient id="bg" x1="0" y1="0" x2="1" y2="1"><stop offset="0" stop-color="#0b2a45"/><stop offset="0.55" stop-color="#123a5c"/><stop offset="1" stop-color="#0b2a45"/></linearGradient><radialGradient id="bloom" cx="0.5" cy="0.1" r="0.9"><stop offset="0" stop-color="#38bdf8" stop-opacity="0.30"/><stop offset="1" stop-color="#38bdf8" stop-opacity="0"/></radialGradient></defs><rect width="1600" height="520" fill="url(#bg)"/><rect width="1600" height="520" fill="url(#bloom)"/><rect x="233" y="108" width="59" height="4" rx="2" fill="#38bdf8" opacity="0.405"/><rect x="243" y="121" width="75" height="4" rx="2" fill="#38bdf8" opacity="0.405"/><rect x="233" y="134" width="83" height="4" rx="2" fill="#38bdf8" opacity="0.405"/><rect x="1302" y="207" width="115" height="4" rx="2" fill="#38bdf8" opacity="0.46"/><rect x="1312" y="220" width="62" height="4" rx="2" fill="#38bdf8" opacity="0.46"/><rect x="1302" y="233" width="58" height="4" rx="2" fill="#38bdf8" opacity="0.46"/><text x="92" y="466" font-family="ui-monospace,Menlo,Consolas,monospace" font-size="114" font-weight="600" fill="#38bdf8" opacity="0.484">{ }</text><rect x="1446" y="84" width="41" height="4" rx="2" fill="#38bdf8" opacity="0.444"/><rect x="1456" y="97" width="41" height="4" rx="2" fill="#38bdf8" opacity="0.444"/><rect x="1446" y="110" width="48" height="4" rx="2" fill="#38bdf8" opacity="0.444"/><text x="47" y="154" font-family="ui-monospace,Menlo,Consolas,monospace" font-size="88" font-weight="600" fill="#38bdf8" opacity="0.517">&lt;/&gt;</text><text x="217" y="438" font-family="ui-monospace,Menlo,Consolas,monospace" font-size="122" font-weight="600" fill="#38bdf8" opacity="0.741">{ }</text><rect x="89" y="289" width="52" height="4" rx="2" fill="#38bdf8" opacity="0.644"/><rect x="99" y="302" width="58" height="4" rx="2" fill="#38bdf8" opacity="0.644"/><rect x="89" y="315" width="39" height="4" rx="2" fill="#38bdf8" opacity="0.644"/><g opacity="0.686"><svg x="1465" y="201" width="65" height="65" viewBox="0 0 32 32"><path fill="#E44D26" d="M5 3h22l-2 22-9 3-9-3z"/><path fill="#F16529" d="M16 5v23.3l7.3-2.4L25 5z"/><path fill="#EBEBEB" d="M16 14h-4l-.3-3H16V8H8.4l.9 9.9H16z"/><path fill="#EBEBEB" d="M16 20.9l-3.4-.9-.2-2.4H9.4l.4 4.7 6.2 1.7z"/><path fill="#fff" d="M16 14v3h3.6l-.3 3.9-3.3.9v3.1l6.2-1.7 1-11.2H16zm0-6v3h7.3l.3-3z"/></svg></g><g opacity="0.8"><svg x="1386" y="341" width="74" height="74" viewBox="0 0 32 32"><path fill="#1572B6" d="M5 3h22l-2 22-9 3-9-3z"/><path fill="#33A9DC" d="M16 5v23.3l7.3-2.4L25 5z"/><path fill="#fff" d="M16 11h6l.2-2H9.5l.6 6.5H19l-.3 3-2.7.8-2.8-.8-.2-2h-3l.4 4.5 5.6 1.6 5.6-1.6.8-8.5H12.9l-.2-2.5z"/></svg></g><g opacity="0.728"><svg x="1402" y="82" width="72" height="72" viewBox="0 0 32 32"><rect width="32" height="32" rx="3" fill="#F7DF1E"/><path fill="#1F2A37" d="M13.2 24.6c-1.9 0-3-1-3.6-2.3l2-1.2c.4.8.8 1.4 1.7 1.4.8 0 1.3-.3 1.3-1.6v-8.5h2.5v8.6c0 2.6-1.5 3.6-3.9 3.6zm8.4 0c-2.3 0-3.8-1.1-4.5-2.5l2-1.2c.5.9 1.2 1.5 2.4 1.5 1 0 1.7-.5 1.7-1.2 0-.9-.7-1.2-1.9-1.7l-.6-.3c-1.9-.8-3.2-1.8-3.2-3.9 0-2 1.5-3.4 3.8-3.4 1.7 0 2.9.6 3.7 2.1l-2 1.3c-.4-.8-.9-1.1-1.7-1.1s-1.3.5-1.3 1.1c0 .8.5 1.1 1.6 1.6l.6.3c2.2 1 3.5 1.9 3.5 4 0 2.4-1.9 3.4-4.1 3.4z"/></svg></g><g opacity="0.578"><svg x="99" y="200" width="56" height="56" viewBox="0 0 32 32"><circle cx="16" cy="16" r="2.6" fill="#61DAFB"/><g fill="none" stroke="#61DAFB" stroke-width="1.5"><ellipse cx="16" cy="16" rx="12" ry="4.6"/><ellipse cx="16" cy="16" rx="12" ry="4.6" transform="rotate(60 16 16)"/><ellipse cx="16" cy="16" rx="12" ry="4.6" transform="rotate(120 16 16)"/></g></svg></g><g opacity="0.71"><svg x="204" y="159" width="54" height="54" viewBox="0 0 32 32"><rect width="32" height="32" rx="5" fill="#7952B3"/><path fill="#fff" d="M11 8h6.6c2.6 0 4.2 1.3 4.2 3.4 0 1.5-1.1 2.8-2.5 3v.1c1.9.2 3.2 1.5 3.2 3.4 0 2.4-1.8 3.9-4.8 3.9H11zm2.7 2.1v3.6h2.6c1.6 0 2.5-.6 2.5-1.9 0-1.1-.8-1.7-2.2-1.7zm0 5.5v4h3c1.7 0 2.6-.7 2.6-2s-.9-2-2.7-2z"/></svg></g><g opacity="0.8"><svg x="1432" y="272" width="73" height="73" viewBox="0 0 32 32"><path fill="#3776AB" d="M15.9 3c-2 0-3.6.2-4.8.6-1.4.4-2 1.3-2 2.6v3.1h7v1H6.6c-1.6 0-3 .9-3.5 2.7-.5 2-.5 3.3 0 5.4.5 1.7 1.5 2.9 3.1 2.9h2.2v-3.6c0-1.8 1.6-3.4 3.5-3.4h5.9c1.5 0 2.7-1.3 2.7-2.8V6.2c0-1.5-1.2-2.6-2.7-2.9-1-.2-2-.3-3-.3zm-3.4 2.2c.6 0 1 .5 1 1.1s-.4 1.1-1 1.1-1-.5-1-1.1.4-1.1 1-1.1z"/><path fill="#FFD43B" d="M16.1 29c2 0 3.6-.2 4.8-.6 1.4-.4 2-1.3 2-2.6v-3.1h-7v-1h9.5c1.6 0 3-.9 3.5-2.7.5-2 .5-3.3 0-5.4-.5-1.7-1.5-2.9-3.1-2.9h-2.2v3.6c0 1.8-1.6 3.4-3.5 3.4h-5.9c-1.5 0-2.7 1.3-2.7 2.8v5.3c0 1.5 1.2 2.6 2.7 2.9 1 .2 2 .3 3 .3zm3.4-2.2c-.6 0-1-.5-1-1.1s.4-1.1 1-1.1 1 .5 1 1.1-.4 1.1-1 1.1z"/></svg></g><g opacity="0.8"><svg x="1498" y="25" width="61" height="61" viewBox="0 0 32 32"><rect width="32" height="32" rx="4" fill="#092E20"/><path fill="#fff" d="M13.4 6h3.2v14.6c-1.6.3-2.9.4-4.2.4-4 0-6.1-1.8-6.1-5.3 0-3.3 2.2-5.5 5.7-5.5.5 0 .9 0 1.4.2zm0 7.1c-.4-.1-.7-.2-1.1-.2-1.7 0-2.7 1-2.7 2.8s.9 2.7 2.6 2.7c.4 0 .7 0 1.2-.1zM21.9 10.4v7.4c0 2.6-.2 3.8-.8 4.8-.5 1-1.2 1.7-2.7 2.4l-3-1.4c1.5-.7 2.2-1.3 2.7-2.2.4-.9.6-2 .6-4.7v-6.3zM18.7 5.9h3.2v3.3h-3.2z"/></svg></g><g opacity="0.66"><svg x="130" y="91" width="55" height="55" viewBox="0 0 32 32"><rect width="32" height="32" rx="4" fill="#EFEFEF"/><path fill="#1F2A37" d="M13 5h6v2h-2v5.3l6.4 11.1c.9 1.6-.2 3.6-2.1 3.6H10.7c-1.9 0-3-2-2.1-3.6L15 12.3V7h-2zm4 2v5.8l1.6 2.8h-5.2L15 12.8V7zm-6.4 12.6-.9 1.5c-.3.6.1 1.3.8 1.3h11c.7 0 1.1-.7.8-1.3l-.9-1.5z"/></svg></g><g opacity="0.8"><svg x="32" y="52" width="55" height="55" viewBox="0 0 32 32"><rect width="32" height="32" rx="4" fill="#123A5C"/><path fill="#fff" d="M11.6 9.4v2c-1.3 0-1.8.4-1.8 1.5v1.4c0 1.1-.5 1.6-1.5 1.7 1 .1 1.5.6 1.5 1.7v1.4c0 1.1.5 1.5 1.8 1.5v2c-2.8 0-4-1-4-3v-1.6c0-.8-.3-1.1-1.1-1.1v-1.8c.8 0 1.1-.3 1.1-1.1v-1.6c0-2 1.2-3 4-3zm8.8 0c2.8 0 4 1 4 3v1.6c0 .8.3 1.1 1.1 1.1v1.8c-.8 0-1.1.3-1.1 1.1v1.6c0 2-1.2 3-4 3v-2c1.3 0 1.8-.4 1.8-1.5v-1.4c0-1.1.5-1.6 1.5-1.7-1-.1-1.5-.6-1.5-1.7v-1.4c0-1.1-.5-1.5-1.8-1.5z"/></svg></g><g opacity="0.596"><svg x="1315" y="242" width="80" height="80" viewBox="0 0 32 32"><rect width="32" height="32" rx="4" fill="#00618A"/><ellipse cx="16" cy="10" rx="8" ry="3.2" fill="#F29111"/><path fill="#fff" d="M8 12.5v3c0 1.8 3.6 3.2 8 3.2s8-1.4 8-3.2v-3c-1.4 1.4-4.5 2.3-8 2.3s-6.6-.9-8-2.3zm0 6v3c0 1.8 3.6 3.2 8 3.2s8-1.4 8-3.2v-3c-1.4 1.4-4.5 2.3-8 2.3s-6.6-.9-8-2.3z"/></svg></g></svg>