<svg xmlns="http://www.w3.org/2000/svg" viewBox="0 0 1600 520" width="1600" height="520" preserveAspectRatio="xMidYMid slice" role="presentation"><defs><linearGradient id="bg" x1="0" y1="0" x2="1" y2="1"><stop offset="0" stop-color="#0b2a45"/><stop offset="0.55" stop-color="#123a5c"/><stop offset="1" stop-color="#0b2a45"/></linearGradient><radialGradient id="bloom" cx="0.5" cy="0.1" r="0.9"><stop offset="0" stop-color="#fcd34d" stop-opacity="0.30"/><stop offset="1" stop-color="#fcd34d" stop-opacity="0"/></radialGradient></defs><rect width="1600" height="520" fill="url(#bg)"/><rect width="1600" height="520" fill="url(#bloom)"/><rect x="187" y="95" width="93" height="3.5" rx="2" fill="#fcd34d" opacity="0.554"/><rect x="187" y="122" width="76" height="3.5" rx="2" fill="#fcd34d" opacity="0.554"/><rect x="187" y="150" width="114" height="3.5" rx="2" fill="#fcd34d" opacity="0.554"/><rect x="187" y="177" width="87" height="3.5" rx="2" fill="#fcd34d" opacity="0.554"/><text x="1282" y="218" font-family="Georgia,serif" font-size="132" font-weight="700" fill="#fcd34d" opacity="0.631">₹</text><text x="1428" y="115" font-family="Georgia,serif" font-size="92" font-weight="700" fill="#fcd34d" opacity="0.552">₹</text><text x="1298" y="421" font-family="Georgia,serif" font-size="104" font-weight="700" fill="#fcd34d" opacity="0.57">₹</text><rect x="211" y="338" width="106" height="3.5" rx="2" fill="#fcd34d" opacity="0.598"/><rect x="211" y="365" width="101" height="3.5" rx="2" fill="#fcd34d" opacity="0.598"/><rect x="211" y="392" width="119" height="3.5" rx="2" fill="#fcd34d" opacity="0.598"/><rect x="211" y="420" width="75" height="3.5" rx="2" fill="#fcd34d" opacity="0.598"/><text x="1450" y="482" font-family="Georgia,serif" font-size="121" font-weight="700" fill="#fcd34d" opacity="0.68">₹</text></svg>